<mxfile host="Electron" agent="Mozilla/5.0 (Macintosh; Intel Mac OS X 10_15_7) AppleWebKit/537.36 (KHTML, like Gecko) draw.io/26.0.9 Chrome/128.0.6613.186 Electron/32.2.5 Safari/537.36" version="26.0.9">
  <diagram name="Page-1" id="VQ4A-7SHJHOUL0QWqSoV">
    <mxGraphModel dx="1114" dy="821" grid="1" gridSize="10" guides="1" tooltips="1" connect="1" arrows="1" fold="1" page="1" pageScale="1" pageWidth="827" pageHeight="1169" math="0" shadow="0">
      <root>
        <mxCell id="0" />
        <mxCell id="1" parent="0" />
        <mxCell id="TtbN3Mf3U8rxj5TvriX1-15" value="집계된 주식 거래 토픽" style="rounded=0;whiteSpace=wrap;html=1;verticalAlign=top;fontStyle=1" vertex="1" parent="1">
          <mxGeometry x="480" y="180" width="120" height="130" as="geometry" />
        </mxCell>
        <mxCell id="TtbN3Mf3U8rxj5TvriX1-9" value="프로세서" style="rounded=0;whiteSpace=wrap;html=1;verticalAlign=top;fontStyle=1" vertex="1" parent="1">
          <mxGeometry x="280" y="260" width="120" height="180" as="geometry" />
        </mxCell>
        <mxCell id="TtbN3Mf3U8rxj5TvriX1-4" value="프로세서" style="rounded=0;whiteSpace=wrap;html=1;verticalAlign=top;fontStyle=1" vertex="1" parent="1">
          <mxGeometry x="280" y="35" width="120" height="180" as="geometry" />
        </mxCell>
        <mxCell id="TtbN3Mf3U8rxj5TvriX1-1" value="주식 거래 토픽" style="rounded=0;whiteSpace=wrap;html=1;verticalAlign=top;fontStyle=1" vertex="1" parent="1">
          <mxGeometry x="90" y="180" width="120" height="130" as="geometry" />
        </mxCell>
        <mxCell id="TtbN3Mf3U8rxj5TvriX1-13" style="rounded=0;orthogonalLoop=1;jettySize=auto;html=1;entryX=0;entryY=0.5;entryDx=0;entryDy=0;endArrow=block;endFill=1;exitX=1;exitY=0.5;exitDx=0;exitDy=0;" edge="1" parent="1" source="TtbN3Mf3U8rxj5TvriX1-2" target="TtbN3Mf3U8rxj5TvriX1-7">
          <mxGeometry relative="1" as="geometry" />
        </mxCell>
        <mxCell id="TtbN3Mf3U8rxj5TvriX1-2" value="A-B 파티션" style="rounded=1;whiteSpace=wrap;html=1;fillColor=#ffe6cc;strokeColor=#d79b00;" vertex="1" parent="1">
          <mxGeometry x="115" y="220" width="70" height="30" as="geometry" />
        </mxCell>
        <mxCell id="TtbN3Mf3U8rxj5TvriX1-14" style="rounded=0;orthogonalLoop=1;jettySize=auto;html=1;entryX=0;entryY=0.5;entryDx=0;entryDy=0;endArrow=block;endFill=1;exitX=1;exitY=0.5;exitDx=0;exitDy=0;" edge="1" parent="1" source="TtbN3Mf3U8rxj5TvriX1-3" target="TtbN3Mf3U8rxj5TvriX1-11">
          <mxGeometry relative="1" as="geometry" />
        </mxCell>
        <mxCell id="TtbN3Mf3U8rxj5TvriX1-3" value="O-Z 파티션" style="rounded=1;whiteSpace=wrap;html=1;fillColor=#e1d5e7;strokeColor=#9673a6;" vertex="1" parent="1">
          <mxGeometry x="115" y="260" width="70" height="30" as="geometry" />
        </mxCell>
        <mxCell id="TtbN3Mf3U8rxj5TvriX1-6" value="로컬 상태" style="shape=cylinder3;whiteSpace=wrap;html=1;boundedLbl=1;backgroundOutline=1;size=15;fillColor=#d5e8d4;strokeColor=#82b366;" vertex="1" parent="1">
          <mxGeometry x="310" y="70" width="60" height="60" as="geometry" />
        </mxCell>
        <mxCell id="TtbN3Mf3U8rxj5TvriX1-18" style="rounded=0;orthogonalLoop=1;jettySize=auto;html=1;entryX=0;entryY=0.5;entryDx=0;entryDy=0;endArrow=block;endFill=1;exitX=1;exitY=0.5;exitDx=0;exitDy=0;" edge="1" parent="1" source="TtbN3Mf3U8rxj5TvriX1-7" target="TtbN3Mf3U8rxj5TvriX1-16">
          <mxGeometry relative="1" as="geometry" />
        </mxCell>
        <mxCell id="TtbN3Mf3U8rxj5TvriX1-7" value="최소값, 평균값&lt;div&gt;집계&lt;/div&gt;" style="ellipse;whiteSpace=wrap;html=1;fillColor=#ffe6cc;strokeColor=#d79b00;" vertex="1" parent="1">
          <mxGeometry x="295" y="155" width="90" height="50" as="geometry" />
        </mxCell>
        <mxCell id="TtbN3Mf3U8rxj5TvriX1-8" style="edgeStyle=orthogonalEdgeStyle;rounded=0;orthogonalLoop=1;jettySize=auto;html=1;entryX=0.5;entryY=1;entryDx=0;entryDy=0;entryPerimeter=0;endArrow=block;endFill=1;startArrow=block;startFill=1;" edge="1" parent="1" source="TtbN3Mf3U8rxj5TvriX1-7" target="TtbN3Mf3U8rxj5TvriX1-6">
          <mxGeometry relative="1" as="geometry" />
        </mxCell>
        <mxCell id="TtbN3Mf3U8rxj5TvriX1-10" value="로컬 상태" style="shape=cylinder3;whiteSpace=wrap;html=1;boundedLbl=1;backgroundOutline=1;size=15;fillColor=#d5e8d4;strokeColor=#82b366;" vertex="1" parent="1">
          <mxGeometry x="310" y="295" width="60" height="60" as="geometry" />
        </mxCell>
        <mxCell id="TtbN3Mf3U8rxj5TvriX1-19" style="rounded=0;orthogonalLoop=1;jettySize=auto;html=1;entryX=0;entryY=0.5;entryDx=0;entryDy=0;endArrow=block;endFill=1;exitX=1;exitY=0.5;exitDx=0;exitDy=0;" edge="1" parent="1" source="TtbN3Mf3U8rxj5TvriX1-11" target="TtbN3Mf3U8rxj5TvriX1-17">
          <mxGeometry relative="1" as="geometry" />
        </mxCell>
        <mxCell id="TtbN3Mf3U8rxj5TvriX1-11" value="최소값, 평균값&lt;div&gt;집계&lt;/div&gt;" style="ellipse;whiteSpace=wrap;html=1;fillColor=#e1d5e7;strokeColor=#9673a6;" vertex="1" parent="1">
          <mxGeometry x="295" y="380" width="90" height="50" as="geometry" />
        </mxCell>
        <mxCell id="TtbN3Mf3U8rxj5TvriX1-12" style="edgeStyle=orthogonalEdgeStyle;rounded=0;orthogonalLoop=1;jettySize=auto;html=1;entryX=0.5;entryY=1;entryDx=0;entryDy=0;entryPerimeter=0;endArrow=block;endFill=1;startArrow=block;startFill=1;" edge="1" parent="1" source="TtbN3Mf3U8rxj5TvriX1-11" target="TtbN3Mf3U8rxj5TvriX1-10">
          <mxGeometry relative="1" as="geometry" />
        </mxCell>
        <mxCell id="TtbN3Mf3U8rxj5TvriX1-16" value="A-B 파티션" style="rounded=1;whiteSpace=wrap;html=1;fillColor=#ffe6cc;strokeColor=#d79b00;" vertex="1" parent="1">
          <mxGeometry x="505" y="220" width="70" height="30" as="geometry" />
        </mxCell>
        <mxCell id="TtbN3Mf3U8rxj5TvriX1-17" value="O-Z 파티션" style="rounded=1;whiteSpace=wrap;html=1;fillColor=#e1d5e7;strokeColor=#9673a6;" vertex="1" parent="1">
          <mxGeometry x="505" y="260" width="70" height="30" as="geometry" />
        </mxCell>
      </root>
    </mxGraphModel>
  </diagram>
</mxfile>
